<?xml version="1.0" encoding="UTF-8"?>
<svg id="Layer_1" data-name="Layer 1" xmlns="http://www.w3.org/2000/svg" viewBox="0 0 221.86 257.7">
  <defs>
    <style>
      .cls-1 {
        fill: #b3a98a;
        stroke-width: 0px;
      }
    </style>
  </defs>
  <g id="iXrz57">
    <g>
      <path class="cls-1" d="M31.76,180.36c-4.38-8.54-9.8-16.92-4.43-27.5.75,1.29,1.28,2.21,1.97,3.39.82-1.59,1.55-3,2.61-5.07,8.8,25.16,28.57,39.46,49.18,53.78-5.91-.69-11.82-1.37-17.73-2.06-.24.42-.48.85-.72,1.27,15.58,9.78,31.16,19.57,46.61,29.27-2.71,7.79-5.45,15.69-8.38,24.13-1.77-5.43-3.61-10.55-5.07-15.77-.94-3.36-2.61-5.57-5.65-7.58-20.39-13.51-40.75-27.08-60.75-41.16-9.34-6.57-16.56-15.43-21.73-25.73-5.78-11.53-4.82-22.09,4.17-31.29,10.29-10.53,21.15-20.54,32.27-30.2,6.7-5.83,14.35-10.58,21.57-15.81-.21-.39-.42-.78-.63-1.16-2.3.97-4.7,1.76-6.88,2.95-6.71,3.67-13.78,6.9-19.88,11.41-6.42,4.75-12.47,3.09-19.58.9,12.04-.36,10.71-9.44,12.42-17.5-7.83-.79-15.29-1.54-22.76-2.29,0-.31,0-.62,0-.94,5.5-.46,11-.97,16.51-1.36,7.97-.56,7.88-.54,10.05-7.97,1.4-4.79,2.79-9.62,4.74-14.19,11.55-27.05,31.47-45.14,58.75-55.99,9.65-3.84,17.91-3.79,27.48.12,25.15,10.28,45.18,25.53,54.34,52.1,3.73,10.81,6.62,21.91,9.65,32.94,1.62,5.88,2.72,11.9,4.21,18.57-12.6-7.03-24.41-13.63-36.22-20.22-.06.21-.12.42-.19.64,13.55,11.98,27.24,23.8,40.57,36.02,5.08,4.66,9.75,9.94,13.82,15.51,5.95,8.15,6.27,17.2,2.4,26.51-5.52,13.28-15,23.41-26.4,31.53-18.01,12.83-36.59,24.86-54.82,37.39-1.86,1.28-3.51,3.45-4.33,5.56-2.13,5.44-3.75,11.08-5.73,17.15-2.9-8.55-5.54-16.31-8.25-24.29,15.11-9.49,30.83-19.35,46.55-29.21-.13-.43-.26-.87-.4-1.3-6.04.71-12.08,1.41-18.12,2.12,20.23-14.31,40.33-28.4,48.93-53.19,6.57,9.16,5.28,16-7.19,36.68,8.91-7.25,16.15-15.08,20.65-24.73,3.81-8.16,1.9-16.64-3.84-23.39-5.69-6.69-12.13-12.79-18.62-18.74-13.04-11.97-27.15-22.39-43.29-30.04-18.2-8.61-36.1-8.74-54.35-.35-20.45,9.4-37.37,23.54-53.32,39.02-3.57,3.47-7.21,6.99-10.08,11.02-6.58,9.22-6.48,18.4-.1,27.77,2.79,4.1,5.94,7.97,8.93,11.94.36-.21.71-.42,1.07-.63Z"/>
      <path class="cls-1" d="M54.91,156.39c11.13-.59,20.27-5.76,29.59-10.46,4.3-2.17,8.67-4.19,13.07-6.13,9.82-4.34,19.71-4.25,29.44.2,7.24,3.31,14.2,7.22,21.51,10.34,6.35,2.71,13.01,4.67,20.49,7.31.54,5.14-.4,11.6-4.15,16.59-5.33,7.07-11.25,14.03-18.13,19.53-8.77,7.02-18.73,12.57-28.21,18.7-3.58,2.32-7.47,3.11-11.27.78-14.28-8.75-29.18-16.69-41.01-28.88-7.41-7.64-11.55-16.77-11.35-27.97Z"/>
      <path class="cls-1" d="M187.87,97.06v-9.54c5.58,1.44,10.56,2.72,16.82,4.33-6.33,1.96-11.49,3.56-16.82,5.21Z"/>
      <path class="cls-1" d="M171,230.18c6.25-2.79,12.83.19,19.28.86-6.39.36-12.78.71-19.17,1.07-.04-.64-.07-1.28-.11-1.93Z"/>
      <path class="cls-1" d="M162.52,39.2v-3.58c6.01.54,11.38,1.02,18.12,1.63-6.82.74-12.38,1.34-18.12,1.96Z"/>
      <path class="cls-1" d="M127.02,143.58v-3.58c6.01.54,11.38,1.02,18.12,1.63-6.82.74-12.38,1.34-18.12,1.96Z"/>
      <path class="cls-1" d="M42.91,78.15v-9.54c-5.83,1.44-11.04,2.72-17.58,4.33,6.62,1.96,12.02,3.56,17.58,5.21Z"/>
    </g>
  </g>
</svg>